Patient4_TMGait_0pt4_03_right_17_GRF.mot
version=1
nRows=32
nColumns=19
inDegrees=no
endheader
time	F1x	F1y	F1z	M1x	M1y	M1z	F2x	F2y	F2z	M2x	M2y	M2z	EC1x	EC1y	EC1z	EC2x	EC2y	EC2z
21.49	-27.0262	753.8557	71.9449	-250.9218	-85.7242	834.5123	19.9867	32.1963	-10.1952	8.7402	4.3428	33.6533	-0.0592	0.0182	-0.0073	-0.0462	0.0165	0.9585
21.5034	-22.3433	747.383	69.627	-248.501	-81.337	824.0555	13.4348	22.6187	-7.0415	6.2281	3.1245	23.7062	-0.0592	0.0182	-0.0073	-0.0462	0.0165	0.9585
21.5167	-17.5098	739.2825	67.1595	-245.6347	-76.7042	811.4209	7.9095	14.5486	-4.372	4.1124	2.0856	15.3281	-0.0592	0.0182	-0.0073	-0.0462	0.0165	0.9585
21.5301	-12.7354	730.5243	64.7172	-242.6626	-72.0927	797.7698	3.713	8.4491	-2.3402	2.5171	1.2911	8.9954	-0.0592	0.0182	-0.0073	-0.0462	0.0165	0.9585
21.5434	-8.13	722.3513	62.4601	-239.9953	-67.7134	784.5131	0.80956	4.275	-0.94351	1.4305	0.75016	4.6638	-0.0592	0.0182	-0.0073	-0.0462	0.0165	0.9585
21.5568	-3.7471	715.9984	60.5208	-238.0307	-63.7243	773.0223	-1.0001	1.7246	-0.086531	0.77114	0.4305	2.0208	-0.0592	0.0182	-0.0073	-0.0462	0.0165	0.9585
21.5701	0.39936	712.4983	58.9694	-237.0987	-60.206	764.4181	-1.977	0.40709	0.35071	0.43107	0.29385	0.65994	-0.0592	0.0182	-0.0073	-0.0462	0.0165	0.9585
21.5835	4.3383	712.5707	57.8363	-237.4248	-57.1825	759.466	-2.3923	-0.10789	0.49068	0.29196	0.3002	0.12795	-0.0592	0.0182	-0.0073	-0.0462	0.0165	0.9585
21.5969	8.142	716.5551	57.0956	-239.1082	-54.609	758.5029	-2.4849	-0.20927	0.4361	0.24396	0.4183	0.014847	-0.0592	0.0182	-0.0073	-0.0462	0.0165	0.9585
21.6102	11.8793	724.3379	56.7046	-242.0945	-52.4223	761.3862	-2.4256	-0.21811	0.26352	0.19193	0.6212	-0.026517	-0.0592	0.0182	-0.0073	-0.0462	0.0165	0.9585
21.6236	15.6355	735.3549	56.5984	-246.1766	-50.5337	767.5028	-2.3319	-0.40883	0.031894	0.051423	0.87983	-0.29746	-0.0592	0.0182	-0.0073	-0.0462	0.0165	0.9585
21.6369	19.4804	748.6163	56.7174	-251.003	-48.8575	775.8327	-2.267	-0.9982	-0.21771	-0.24718	1.1635	-1.0322	-0.0592	0.0182	-0.0073	-0.0462	0.0165	0.9585
21.6503	23.4489	762.7799	57.0083	-256.0995	-47.3275	785.028	-2.2168	-2.1192	-0.45086	-0.74833	1.4248	-2.377	-0.0592	0.0182	-0.0073	-0.0462	0.0165	0.9585
21.6636	27.5221	776.266	57.4352	-260.903	-45.9156	793.5359	-2.1244	-3.8099	-0.63628	-1.4637	1.6017	-4.3681	-0.0592	0.0182	-0.0073	-0.0462	0.0165	0.9585
21.677	31.6155	787.3765	57.9659	-264.8038	-44.6211	799.7385	-1.8806	-5.9778	-0.72654	-2.354	1.6003	-6.8942	-0.0592	0.0182	-0.0073	-0.0462	0.0165	0.9585
21.6904	35.5579	794.4174	58.5741	-267.189	-43.4785	802.0768	-1.3223	-8.3165	-0.66687	-3.2968	1.2982	-9.5974	-0.0592	0.0182	-0.0073	-0.0462	0.0165	0.9585
21.7037	39.1087	795.9831	59.24	-267.5452	-42.5543	799.3197	-0.24418	-10.2358	-0.37969	-4.0577	0.52737	-11.798	-0.0592	0.0182	-0.0073	-0.0462	0.0165	0.9585
21.7171	42.0263	791.3171	59.9337	-265.5933	-41.9146	790.8949	1.5681	-10.7901	0.22964	-4.259	-0.90546	-12.4029	-0.0592	0.0182	-0.0073	-0.0462	0.0165	0.9585
21.7304	44.0939	780.5046	60.6087	-261.3617	-41.6054	777.0682	4.3044	-8.5982	1.2645	-3.349	-3.1893	-9.8095	-0.0592	0.0182	-0.0073	-0.0462	0.0165	0.9585
21.7438	45.17	764.3933	61.192	-255.158	-41.6239	758.8194	8.0736	-1.8288	2.8044	-0.5968	-6.4474	-1.8952	-0.0592	0.0182	-0.0073	-0.0462	0.0165	0.9585
21.7571	45.2286	744.2986	61.5874	-247.4649	-41.9043	737.5064	12.7764	11.6918	4.8765	4.8653	-10.6627	13.8568	-0.0592	0.0182	-0.0073	-0.0462	0.0165	0.9585
21.7705	44.396	721.6076	61.6696	-238.8015	-42.2985	714.4687	17.9835	34.2312	7.397	13.9374	-15.5574	40.0646	-0.0592	0.0182	-0.0073	-0.0462	0.0165	0.9585
21.7839	42.9057	697.32	61.3081	-229.5632	-42.6059	690.5895	22.7689	67.6437	10.0971	27.3467	-20.4402	78.8632	-0.0592	0.0182	-0.0073	-0.0462	0.0165	0.9585
21.7972	41.0218	671.7235	60.3659	-219.9121	-42.5964	665.9897	25.5182	112.5088	12.4288	45.3045	-24.0229	130.9063	-0.0592	0.0182	-0.0073	-0.0462	0.0165	0.9585
21.8106	38.9703	644.3627	58.6637	-209.7698	-42.0005	640.0243	24.0964	167.2037	13.469	67.1274	-24.4027	194.3245	-0.0592	0.0182	-0.0073	-0.0462	0.0165	0.9585
21.8239	36.9152	614.266	56.0379	-198.8902	-40.5749	611.519	17.4842	227.9234	12.1393	91.2013	-19.9476	264.8265	-0.0592	0.0182	-0.0073	-0.0462	0.0165	0.9585
21.8373	34.9627	580.2799	52.4025	-186.9639	-38.1642	579.1154	7.0877	288.973	7.9012	115.1868	-10.6781	335.8234	-0.0592	0.0182	-0.0073	-0.0462	0.0165	0.9585
21.8506	33.1381	541.3818	47.8543	-173.702	-34.8149	541.6194	-4.2506	345.3791	1.2345	137.0934	1.6997	401.2998	-0.0592	0.0182	-0.0073	-0.0462	0.0165	0.9585
21.864	31.326	496.9891	42.6432	-158.9226	-30.7654	498.3538	-14.5448	395.3176	-7.0454	156.2015	15.4463	458.9687	-0.0592	0.0182	-0.0073	-0.0462	0.0165	0.9585
21.8774	29.281	447.214	37.1353	-142.634	-26.4152	449.4109	-22.7128	439.1608	-15.8211	172.7222	28.8828	509.2061	-0.0592	0.0182	-0.0073	-0.0462	0.0165	0.9585
21.8907	26.7381	392.9898	31.6446	-125.0908	-22.1423	395.7428	-28.5613	478.0952	-24.2648	187.21	40.9668	553.4531	-0.0592	0.0182	-0.0073	-0.0462	0.0165	0.9585
21.9041	23.4718	336.0157	26.4148	-106.7858	-18.2601	339.0901	-32.2689	513.5918	-31.6711	200.3341	50.984	593.4335	-0.0592	0.0182	-0.0073	-0.0462	0.0165	0.9585
